<svg width="80" height="80" viewBox="0 0 80 80" fill="none" xmlns="http://www.w3.org/2000/svg">
<circle cx="40" cy="40" r="40" fill="#FB546A"/>
<rect x="32" y="20" width="16.67" height="25.83" rx="8.335" fill="white"/>
<path d="M40.0399 49.0036C40.0366 49.0036 40.0333 49.0036 40.0299 49.0036C40.0266 49.0036 40.0233 49.0036 40.0199 49.0036C35.1312 48.9989 30.9426 45.9869 29.212 41.7116C28.8666 40.8584 27.895 40.4468 27.0417 40.7921C26.1885 41.1374 25.7768 42.1091 26.1222 42.9623C28.1471 47.9646 32.7942 51.6293 38.3633 52.2453V57.3369C38.3633 58.2574 39.1094 59.0036 40.0299 59.0036C40.9504 59.0036 41.6966 58.2574 41.6966 57.3369V52.2456C47.2668 51.6303 51.9151 47.9653 53.9403 42.9623C54.2856 42.1091 53.8739 41.1374 53.0208 40.7921C52.1674 40.4468 51.1958 40.8584 50.8504 41.7116C49.1196 45.9878 44.9298 49.0001 40.0399 49.0036Z" fill="white"/>
</svg>
